<svg width="640" height="800" viewBox="0 0 640 800" xmlns="http://www.w3.org/2000/svg" role="img" aria-labelledby="title desc">
  <title id="title">Retrato de Laura Cardenas</title>
  <desc id="desc">Ilustracion academica de candidata presidencial.</desc>
  <defs>
    <linearGradient id="bg" x1="0" y1="0" x2="1" y2="1">
      <stop offset="0%" stop-color="#1f3c3b"/>
      <stop offset="100%" stop-color="#0a1817"/>
    </linearGradient>
  </defs>
  <rect width="640" height="800" fill="url(#bg)"/>
  <ellipse cx="320" cy="790" rx="300" ry="80" fill="#000" opacity="0.25"/>
  <circle cx="320" cy="250" r="128" fill="#efc5a0"/>
  <rect x="210" y="360" width="220" height="280" rx="34" fill="#edf1f4"/>
  <path d="M200 430 C255 395 385 395 440 430 L440 640 L200 640 Z" fill="#1a4d49"/>
  <path d="M202 191 C240 82 398 82 438 191 C392 124 248 124 202 191Z" fill="#121926"/>
  <circle cx="275" cy="250" r="12" fill="#2d201b"/>
  <circle cx="365" cy="250" r="12" fill="#2d201b"/>
  <path d="M286 314 C302 336 338 336 354 314" stroke="#7a5342" stroke-width="8" stroke-linecap="round" fill="none"/>
  <text x="50%" y="725" text-anchor="middle" fill="#f8fafc" font-size="34" font-family="Georgia, serif" letter-spacing="1.2">Laura Cardenas</text>
</svg>
