<svg width="640" height="800" viewBox="0 0 640 800" xmlns="http://www.w3.org/2000/svg" role="img" aria-labelledby="title desc">
  <title id="title">Retrato de Tomas Rios</title>
  <desc id="desc">Ilustracion academica de candidato presidencial.</desc>
  <defs>
    <linearGradient id="bg" x1="0" y1="0" x2="1" y2="1">
      <stop offset="0%" stop-color="#2f1f4a"/>
      <stop offset="100%" stop-color="#130a23"/>
    </linearGradient>
  </defs>
  <rect width="640" height="800" fill="url(#bg)"/>
  <ellipse cx="320" cy="790" rx="300" ry="80" fill="#000" opacity="0.25"/>
  <circle cx="320" cy="250" r="128" fill="#e6bb92"/>
  <rect x="210" y="360" width="220" height="280" rx="34" fill="#dbe0e8"/>
  <path d="M200 430 C255 395 385 395 440 430 L440 640 L200 640 Z" fill="#401f62"/>
  <path d="M204 184 C226 95 414 95 436 184 C385 112 255 112 204 184Z" fill="#2f1f17"/>
  <circle cx="275" cy="250" r="12" fill="#2a2018"/>
  <circle cx="365" cy="250" r="12" fill="#2a2018"/>
  <path d="M284 316 C302 333 338 333 356 316" stroke="#6f4b3f" stroke-width="8" stroke-linecap="round" fill="none"/>
  <text x="50%" y="725" text-anchor="middle" fill="#f8fafc" font-size="34" font-family="Georgia, serif" letter-spacing="1.2">Tomas Rios</text>
</svg>
