<svg width="640" height="800" viewBox="0 0 640 800" xmlns="http://www.w3.org/2000/svg" role="img" aria-labelledby="title desc">
  <title id="title">Retrato de Mariana Serrano</title>
  <desc id="desc">Ilustracion academica de candidata presidencial.</desc>
  <defs>
    <linearGradient id="bg" x1="0" y1="0" x2="1" y2="1">
      <stop offset="0%" stop-color="#123146"/>
      <stop offset="100%" stop-color="#061725"/>
    </linearGradient>
  </defs>
  <rect width="640" height="800" fill="url(#bg)"/>
  <ellipse cx="320" cy="790" rx="300" ry="80" fill="#000" opacity="0.25"/>
  <circle cx="320" cy="250" r="128" fill="#f2c8a4"/>
  <rect x="210" y="360" width="220" height="280" rx="34" fill="#dde7f0"/>
  <path d="M200 430 C255 395 385 395 440 430 L440 640 L200 640 Z" fill="#113050"/>
  <path d="M205 180 C220 95 420 95 435 180 C410 125 230 125 205 180Z" fill="#1b1f2f"/>
  <circle cx="275" cy="250" r="12" fill="#2b221f"/>
  <circle cx="365" cy="250" r="12" fill="#2b221f"/>
  <path d="M286 315 C302 334 338 334 354 315" stroke="#7a5242" stroke-width="8" stroke-linecap="round" fill="none"/>
  <text x="50%" y="725" text-anchor="middle" fill="#f8fafc" font-size="34" font-family="Georgia, serif" letter-spacing="1.2">Mariana Serrano</text>
</svg>
